<svg id="Layer_1" data-name="Layer 1" xmlns="http://www.w3.org/2000/svg" viewBox="0 0 116.45 122.88"><defs><style>.cls-1{fill-rule:evenodd;}</style></defs><title>consulting</title><path class="cls-1" d="M75.15,103.34c-16.22,0-5.54,4-3.33-13.67,1.76-14,8.25-20.53,15.81-19.69,7.56-.84,14.05,5.72,15.81,19.69,2.21,17.63,12.89,13.67-3.33,13.67l-6.32,0c0,3.93-.79,4.89,3.24,7.27,8.56,5.06,18.35,1.67,19.42,12.25H0c1.87-21.59,24.69-8.31,26.45-23.33.2-1.69-5.23-6.3-6.16-9.4-2-3.14-2.67-8.12-.51-11.45.85-1.31.48-3.22.48-5,0-18.05,30.22-18.06,30.22,0,0,2.29-.53,3.57.71,5.37,2.09,3,1,8.32-.74,11.11-1.11,3.26-6.8,7.56-6.43,9.4C46.47,112,60.7,103.9,66.58,114.44c3.5-.94,7.71-1.48,11.65-3.81s3.27-3.34,3.24-7.27l-6.32,0ZM40.87,0h41a8.4,8.4,0,0,1,8.38,8.38V32.46a8.4,8.4,0,0,1-8.38,8.38H55.35L42.63,51.78a1.41,1.41,0,0,1-2-.15,1.44,1.44,0,0,1-.34-1L41,40.84h-.11a8.4,8.4,0,0,1-8.38-8.38V8.38A8.4,8.4,0,0,1,40.87,0Zm53.5,17.68A8.23,8.23,0,0,1,101,25.74v20A8.23,8.23,0,0,1,92.83,54h-.3l.69,10h0a1.24,1.24,0,0,1-.29.89,1.23,1.23,0,0,1-1.74.13L78.41,53.67H49.55l8.28-8.43h29.6a7,7,0,0,0,7-7v-20c0-.19,0-.37,0-.55ZM45,25.33a1.42,1.42,0,0,1,0-2.83H71.82a1.42,1.42,0,1,1,0,2.83Zm0-9.7a1.41,1.41,0,1,1,0-2.82H78a1.41,1.41,0,0,1,0,2.82ZM81.88,2.83h-41a5.58,5.58,0,0,0-5.56,5.55V32.46A5.6,5.6,0,0,0,40.87,38h1.72a1.41,1.41,0,0,1,1.31,1.5l-.55,7.92,10.49-9a1.4,1.4,0,0,1,1-.41h27a5.58,5.58,0,0,0,5.55-5.56V8.38a5.57,5.57,0,0,0-5.55-5.55Z"/></svg>