<svg id="Layer_1" data-name="Layer 1" xmlns="http://www.w3.org/2000/svg" viewBox="0 0 120.47 122.88"><defs><style>.cls-1{fill-rule:evenodd;}</style></defs><title>topic-discussion</title><path class="cls-1" d="M17.2,0H79.49a17.24,17.24,0,0,1,17.2,17.2V55.55a17.24,17.24,0,0,1-17.2,17.2H46.92L20.81,95.2A2.9,2.9,0,0,1,16,92.81l1.39-20.07H17.2A17.24,17.24,0,0,1,0,55.55V17.2A17.24,17.24,0,0,1,17.2,0ZM49,19.06l4.77,11.19,12.12,1.08a1,1,0,0,1,.88,1.05.92.92,0,0,1-.33.66h0l-9.17,8L60,52.9a1,1,0,0,1-.73,1.17,1,1,0,0,1-.75-.14L48.06,47.7,37.61,54a1,1,0,0,1-1.33-.33.92.92,0,0,1-.11-.72h0L38.88,41l-9.17-8a1,1,0,0,1-.1-1.38,1.06,1.06,0,0,1,.7-.32l12.08-1.08,4.78-11.2a1,1,0,0,1,1.28-.51,1,1,0,0,1,.53.51ZM106.79,28a16.92,16.92,0,0,1,13.68,16.55V82.88a16.9,16.9,0,0,1-16.85,16.85H103l1.42,20.44h0a2.54,2.54,0,0,1-4.18,2.1L74,99.07H39.49l17-17.3h36a14.34,14.34,0,0,0,14.3-14.3V29.11c0-.38,0-.76,0-1.13ZM79.48,5.8H17.2A11.44,11.44,0,0,0,5.8,17.2V55.55A11.44,11.44,0,0,0,17.2,67h3.53a2.9,2.9,0,0,1,2.69,3.08L22.29,86.31,43.83,67.79a2.87,2.87,0,0,1,2-.84H79.48a11.44,11.44,0,0,0,11.4-11.4V17.2A11.44,11.44,0,0,0,79.48,5.8Z"/></svg>