<?xml version="1.0" encoding="utf-8"?>
<!-- Generator: Adobe Illustrator 27.8.1, SVG Export Plug-In . SVG Version: 6.00 Build 0)  -->
<svg version="1.1" id="Layer_1" xmlns="http://www.w3.org/2000/svg" xmlns:xlink="http://www.w3.org/1999/xlink" x="0px" y="0px"
	 viewBox="0 0 120.5 122.9" style="enable-background:new 0 0 120.5 122.9;" xml:space="preserve">
<style type="text/css">
	.st0{fill-rule:evenodd;clip-rule:evenodd;}
</style>
<path class="st0" d="M17.2,0h62.3C89,0,96.7,7.7,96.7,17.2v38.3c0,9.5-7.7,17.2-17.2,17.2H46.9L20.8,95.2c-1.2,1.1-3,0.9-4.1-0.3
	c-0.5-0.6-0.8-1.4-0.7-2.1l1.4-20.1h-0.2C7.7,72.7,0,65,0,55.5V17.2C0,7.7,7.7,0,17.2,0z M106.8,28c7.9,1.5,13.7,8.5,13.7,16.5v38.3
	c0,9.3-7.6,16.8-16.8,16.8H103l1.4,20.4l0,0c0.1,1.4-1,2.6-2.4,2.7c-0.7,0-1.3-0.2-1.8-0.6L74,99.1H39.5l17-17.3h36
	c7.9,0,14.3-6.4,14.3-14.3V29.1C106.8,28.7,106.8,28.4,106.8,28L106.8,28z M79.5,5.8H17.2c-6.3,0-11.4,5.1-11.4,11.4v38.3
	c0,6.3,5.1,11.4,11.4,11.5h3.5c1.6,0.1,2.8,1.5,2.7,3.1l-1.1,16.2l21.5-18.5c0.5-0.5,1.2-0.8,2-0.8h33.7c6.3,0,11.4-5.1,11.4-11.4
	V17.2C90.9,10.9,85.8,5.8,79.5,5.8z M50.8,25.7v26.7h13.1c0.1,0,0.3,0.1,0.3,0.3v2.8c0,0.1-0.1,0.3-0.3,0.3H35.1
	c-0.1,0-0.3-0.1-0.3-0.3v-2.8c0-0.1,0.1-0.3,0.3-0.3h13.1V25.7c-1.1-0.4-2-1.3-2.4-2.4h-8.3v1.3c0,0.1-0.1,0.3-0.3,0.3h-2.1
	c-0.1,0-0.3-0.1-0.3-0.3v-1.3h-2.1c-0.2,0-0.3-0.1-0.3-0.3v-2.1c0-0.1,0.1-0.3,0.3-0.3h13c0.5-1.5,2-2.6,3.7-2.6
	c1.7,0,3.2,1.1,3.7,2.6h13.1c0.2,0,0.3,0.1,0.3,0.3V23c0,0.1-0.1,0.3-0.3,0.3h-2.4v1.3c0,0.1-0.1,0.3-0.3,0.3h-2.1
	c-0.1,0-0.3-0.1-0.3-0.3v-1.3h-8C52.9,24.4,52,25.3,50.8,25.7L50.8,25.7z M63.4,26.2l8.4,14.9c0.1,0.1,0.1,0.3,0.1,0.4h0
	c0,0,0,0,0,0.1c0,3.5-4.2,6.4-9.3,6.4c-5.1,0-9.2-2.8-9.3-6.3c0-0.1,0-0.1,0-0.2c0-0.2,0.1-0.3,0.1-0.4L62,26.1
	c0.2-0.4,0.7-0.5,1.1-0.3C63.2,25.9,63.3,26.1,63.4,26.2L63.4,26.2z M63.4,29.4v11.3h6.4L63.4,29.4L63.4,29.4z M61.9,40.7V29.4
	l-6.5,11.2H61.9L61.9,40.7z M36.8,26.2l8.4,14.9c0.1,0.1,0.1,0.3,0.1,0.4h0c0,0,0,0,0,0.1c0,3.5-4.2,6.4-9.3,6.4
	c-5.1,0-9.2-2.8-9.3-6.3c0-0.1,0-0.1,0-0.2c0-0.2,0.1-0.3,0.1-0.4l8.6-14.9c0.2-0.4,0.7-0.5,1.1-0.3C36.7,25.9,36.8,26.1,36.8,26.2
	L36.8,26.2z M36.9,29.4v11.3h6.4L36.9,29.4L36.9,29.4z M35.4,40.7V29.4l-6.5,11.2H35.4L35.4,40.7z M49.5,20.2c1,0,1.7,0.8,1.7,1.7
	c0,1-0.8,1.7-1.7,1.7s-1.7-0.8-1.7-1.7C47.8,21,48.6,20.2,49.5,20.2L49.5,20.2z"/>
</svg>
